<svg width="16" height="19" viewBox="0 0 16 19" fill="none" xmlns="http://www.w3.org/2000/svg">
<g clip-path="url(#clip0_23_12)">
<path d="M6.00002 2.36029H4.66669C4.66669 1.02279 5.53335 0 6.66669 0V1.57353C6.26669 1.57353 6.00002 1.88824 6.00002 2.36029ZM11.3334 2.36029H10C10 1.88824 9.73335 1.57353 9.33335 1.57353V0C10.4667 0 11.3334 1.02279 11.3334 2.36029ZM11.3334 4.72059H4.66669V2.36029H6.00002V3.14706H10V2.36029H11.3334V4.72059ZM6.66669 0H9.33335V1.57353H6.66669V0Z" fill="black"/>
<path d="M14 4.72056H1.99998C1.59998 4.72056 1.33331 4.40586 1.33331 3.9338C1.33331 3.46174 1.59998 3.14703 1.99998 3.14703H14C14.4 3.14703 14.6666 3.46174 14.6666 3.9338C14.6666 4.40586 14.4 4.72056 14 4.72056ZM12.6666 18.8823H3.33331C2.93331 18.8823 2.66665 18.5676 2.66665 18.0956V7.08086C2.66665 6.6088 2.93331 6.29409 3.33331 6.29409H12.6666C13.0666 6.29409 13.3333 6.6088 13.3333 7.08086V18.0956C13.3333 18.5676 13.0666 18.8823 12.6666 18.8823ZM3.99998 17.3088H12V7.86762H3.99998V17.3088Z" fill="black"/>
<path d="M6.66667 15.7353C6.26667 15.7353 6 15.4206 6 14.9485V10.2279C6 9.75587 6.26667 9.44116 6.66667 9.44116C7.06667 9.44116 7.33333 9.75587 7.33333 10.2279V14.9485C7.33333 15.4206 7.06667 15.7353 6.66667 15.7353ZM9.33333 15.7353C8.93333 15.7353 8.66667 15.4206 8.66667 14.9485V10.2279C8.66667 9.75587 8.93333 9.44116 9.33333 9.44116C9.73333 9.44116 10 9.75587 10 10.2279V14.9485C10 15.4206 9.73333 15.7353 9.33333 15.7353Z" fill="black"/>
</g>
<defs>
<clipPath id="clip0_23_12">
<rect width="16" height="18.8824" fill="white"/>
</clipPath>
</defs>
</svg>
