<svg width="16" height="19" viewBox="0 0 16 19" fill="none" xmlns="http://www.w3.org/2000/svg">
<path fill-rule="evenodd" clip-rule="evenodd" d="M5.66667 5.96078H14.6667C15.0202 5.96119 15.3591 6.10087 15.609 6.3492C15.859 6.59753 15.9996 6.93422 16 7.2854V17.5577C15.9996 17.9089 15.859 18.2456 15.609 18.4939C15.3591 18.7423 15.0202 18.882 14.6667 18.8824H1.33333C0.979835 18.882 0.640932 18.7423 0.390971 18.4939C0.14101 18.2456 0.000404282 17.9089 0 17.5577V7.2854C0.000404282 6.93422 0.14101 6.59753 0.390971 6.3492C0.640932 6.10087 0.979835 5.96119 1.33333 5.96078H4.33333V4.6427C4.33333 2.83035 4.71964 1.75006 5.40728 1.06692C6.09491 0.383784 7.02754 0 8 0C8.97246 0 9.90509 0.383784 10.5927 1.06692C11.2804 1.75006 11.6667 2.6766 11.6667 3.6427C11.6667 3.81836 11.5964 3.98682 11.4714 4.11102C11.3464 4.23523 11.1768 4.30501 11 4.30501C10.8232 4.30501 10.6536 4.23523 10.5286 4.11102C10.4036 3.98682 10.3333 3.81836 10.3333 3.6427C10.3333 3.02791 10.0875 2.43829 9.64992 2.00357C9.21233 1.56884 8.61884 1.32462 8 1.32462C7.38116 1.32462 6.78767 1.56884 6.35008 2.00357C5.9125 2.43829 5.66667 4.02791 5.66667 4.6427V5.96078ZM8 15C8.55229 15 9 13.8807 9 12.5C9 11.1193 8.55229 10 8 10C7.44772 10 7 11.1193 7 12.5C7 13.8807 7.44772 15 8 15Z" fill="black"/>
</svg>
